<?xml version="1.0" encoding="UTF-8" standalone="no"?>
<!-- Created with Inkscape (http://www.inkscape.org/) -->

<svg
   width="256"
   height="256"
   viewBox="0 0 67.733332 67.733336"
   version="1.1"
   id="svg5"
   inkscape:version="1.1.2 (0a00cf5339, 2022-02-04)"
   sodipodi:docname="logo.svg"
   xmlns:inkscape="http://www.inkscape.org/namespaces/inkscape"
   xmlns:sodipodi="http://sodipodi.sourceforge.net/DTD/sodipodi-0.dtd"
   xmlns="http://www.w3.org/2000/svg"
   xmlns:svg="http://www.w3.org/2000/svg">
  <sodipodi:namedview
     id="namedview7"
     pagecolor="#505050"
     bordercolor="#eeeeee"
     borderopacity="1"
     inkscape:pageshadow="0"
     inkscape:pageopacity="0"
     inkscape:pagecheckerboard="0"
     inkscape:document-units="mm"
     showgrid="false"
     inkscape:zoom="1.8101934"
     inkscape:cx="364.04951"
     inkscape:cy="161.58495"
     inkscape:window-width="3436"
     inkscape:window-height="1418"
     inkscape:window-x="0"
     inkscape:window-y="20"
     inkscape:window-maximized="1"
     inkscape:current-layer="g2082"
     units="px" />
  <defs
     id="defs2" />
  <g
     inkscape:label="Layer 1"
     inkscape:groupmode="layer"
     id="layer1">
    <g
       id="g2104"
       transform="translate(-1.5425723,-0.14165883)">
      <g
         id="g2082"
         transform="translate(-96.523611,-17.069725)">
        <path
           style="fill:none;stroke:#000000;stroke-width:2.50661;stroke-linecap:butt;stroke-linejoin:miter;stroke-miterlimit:4;stroke-dasharray:none;stroke-opacity:1"
           d="m 131.79484,69.15585 c 0,0 -0.86174,-6.481285 -6.83585,-6.613953 -5.97412,-0.132668 -5.51362,-6.262432 -5.51362,-6.262432"
           id="path1210" />
        <path
           style="fill:none;stroke:#000000;stroke-width:2.50661;stroke-linecap:butt;stroke-linejoin:miter;stroke-miterlimit:4;stroke-dasharray:none;stroke-opacity:1"
           d="m 131.79484,69.15585 c 0,0 0.86174,-6.481285 6.83585,-6.613953 5.97412,-0.132668 5.51362,-6.262432 5.51362,-6.262432"
           id="path1210-5" />
        <path
           style="fill:none;stroke:#000000;stroke-width:2.32756;stroke-linecap:butt;stroke-linejoin:miter;stroke-miterlimit:4;stroke-dasharray:none;stroke-opacity:1"
           d="m 119.59815,42.315708 0.0301,-10.211927"
           id="path1427" />
        <path
           id="rect846"
           style="fill:#000000;fill-rule:evenodd;stroke-width:0.365001;stroke-linecap:round;stroke-linejoin:round;stroke-dasharray:1.46, 0.730001;stroke-dashoffset:0.474501;fill-opacity:1"
           transform="rotate(-90)"
           d="m -55.014453,136.38763 h 10.438057 c 1.465791,0 2.645833,1.18005 2.645833,2.64584 v 10.43805 c 0,1.4658 -1.180042,2.64584 -2.645833,2.64584 h -10.438057 c -1.465791,0 -2.645833,-1.18004 -2.645833,-2.64584 v -10.43805 c 0,-1.46579 1.180042,-2.64584 2.645833,-2.64584 z" />
        <path
           id="rect846-3"
           style="fill:#000000;fill-rule:evenodd;stroke-width:0.365001;stroke-linecap:round;stroke-linejoin:round;stroke-dasharray:1.46, 0.730001;stroke-dashoffset:0.474501;fill-opacity:1"
           transform="rotate(-90)"
           d="m -55.014453,111.74834 h 10.438057 c 1.465791,0 2.645833,1.18004 2.645833,2.64583 v 10.43806 c 0,1.46579 -1.180042,2.64583 -2.645833,2.64583 h -10.438057 c -1.465791,0 -2.645833,-1.18004 -2.645833,-2.64583 v -10.43806 c 0,-1.46579 1.180042,-2.64583 2.645833,-2.64583 z" />
        <path
           id="rect846-3-6"
           style="fill:#000000;fill-opacity:1;fill-rule:evenodd;stroke-width:0.365001;stroke-linecap:round;stroke-linejoin:round;stroke-dasharray:1.46, 0.730001;stroke-dashoffset:0.474501"
           d="M 124.08851,81.549747 V 71.11169 c 0,-1.465791 1.18004,-2.645833 2.64583,-2.645833 h 10.43806 c 1.46579,0 2.64583,1.180042 2.64583,2.645833 v 10.438057 c 0,1.465791 -1.18004,2.645833 -2.64583,2.645833 h -10.43806 c -1.46579,0 -2.64583,-1.180042 -2.64583,-2.645833 z" />
        <path
           id="rect846-3-7"
           style="fill:#000000;fill-opacity:1;fill-rule:evenodd;stroke-width:0.365001;stroke-linecap:round;stroke-linejoin:round;stroke-dasharray:1.46, 0.730001;stroke-dashoffset:0.474501"
           d="M 111.74834,31.04441 V 20.606354 c 0,-1.465792 1.18004,-2.645833 2.64583,-2.645833 h 10.43806 c 1.46579,0 2.64583,1.180041 2.64583,2.645833 V 31.04441 c 0,1.465792 -1.18004,2.645834 -2.64583,2.645834 h -10.43806 c -1.46579,0 -2.64583,-1.180042 -2.64583,-2.645834 z" />
      </g>
    </g>
  </g>
</svg>
